HIERARCHY
ROOT joint_Root
{
	OFFSET 0.0 0.0 0.0
	CHANNELS 6 Xposition Yposition Zposition Zrotation Xrotation Yrotation 
	JOINT Hips
	{
		OFFSET -17.1583 93.1646 452.98
		CHANNELS 6 Xposition Yposition Zposition Zrotation Xrotation Yrotation 
		JOINT Spine
		{
			OFFSET 15.7357 0.0 0.0
			CHANNELS 6 Xposition Yposition Zposition Zrotation Xrotation Yrotation 
			JOINT Chest
			{
				OFFSET 8.98455 -0.406207 0.0
				CHANNELS 6 Xposition Yposition Zposition Zrotation Xrotation Yrotation 
				JOINT Neck
				{
					OFFSET 16.3773 0.0 0.0
					CHANNELS 6 Xposition Yposition Zposition Zrotation Xrotation Yrotation 
					JOINT Head
					{
						OFFSET 6.45672 0.0 0.0
						CHANNELS 6 Xposition Yposition Zposition Zrotation Xrotation Yrotation 
						End Site
						{
							OFFSET 0.0 0.0 0.0
						}
					}
				}
				JOINT Shoulder_L
				{
					OFFSET 12.9942 -0.242716 4.98039
					CHANNELS 6 Xposition Yposition Zposition Zrotation Xrotation Yrotation 
					JOINT UpperArm_L
					{
						OFFSET 5.34809 0.0 0.0
						CHANNELS 6 Xposition Yposition Zposition Zrotation Xrotation Yrotation 
						JOINT LowerArm_L
						{
							OFFSET 24.3286 1.87007e-05 0.0
							CHANNELS 6 Xposition Yposition Zposition Zrotation Xrotation Yrotation 
							JOINT Hand_L
							{
								OFFSET 22.2916 0.0 0.0
								CHANNELS 6 Xposition Yposition Zposition Zrotation Xrotation Yrotation 
								End Site
								{
									OFFSET 0.0 0.0 0.0
								}
							}
						}
					}
				}
				JOINT Shoulder_R
				{
					OFFSET 12.9945 -0.242716 -4.98039
					CHANNELS 6 Xposition Yposition Zposition Zrotation Xrotation Yrotation 
					JOINT UpperArm_R
					{
						OFFSET -5.34813 0.0 0.0
						CHANNELS 6 Xposition Yposition Zposition Zrotation Xrotation Yrotation 
						JOINT LowerArm_R
						{
							OFFSET -24.3289 0.000322201 0.0
							CHANNELS 6 Xposition Yposition Zposition Zrotation Xrotation Yrotation 
							JOINT Hand_R
							{
								OFFSET -22.2915 -0.000108084 0.0
								CHANNELS 6 Xposition Yposition Zposition Zrotation Xrotation Yrotation 
								End Site
								{
									OFFSET 0.0 0.0 0.0
								}
							}
						}
					}
				}
			}
		}
		JOINT UpperLeg_L
		{
			OFFSET -2.19248 -6.46944 0.0
			CHANNELS 6 Xposition Yposition Zposition Zrotation Xrotation Yrotation 
			JOINT LowerLeg_L
			{
				OFFSET 39.0811 0.0 -1.23785e-05
				CHANNELS 6 Xposition Yposition Zposition Zrotation Xrotation Yrotation 
				JOINT Foot_L
				{
					OFFSET 40.9854 0.0 -1.26872e-05
					CHANNELS 6 Xposition Yposition Zposition Zrotation Xrotation Yrotation 
					JOINT Toes_L
					{
						OFFSET 11.7543 0.0 0.0
						CHANNELS 6 Xposition Yposition Zposition Zrotation Xrotation Yrotation 
						End Site
						{
							OFFSET 0.0 0.0 0.0
						}
					}
				}
			}
		}
		JOINT UpperLeg_R
		{
			OFFSET -2.19251 6.46944 0.0
			CHANNELS 6 Xposition Yposition Zposition Zrotation Xrotation Yrotation 
			JOINT LowerLeg_R
			{
				OFFSET -39.0811 -0.00228153 -0.0401928
				CHANNELS 6 Xposition Yposition Zposition Zrotation Xrotation Yrotation 
				JOINT Foot_R
				{
					OFFSET -40.9854 0.0 0.0
					CHANNELS 6 Xposition Yposition Zposition Zrotation Xrotation Yrotation 
					JOINT Toes_R
					{
						OFFSET -11.7543 0.0 0.0
						CHANNELS 6 Xposition Yposition Zposition Zrotation Xrotation Yrotation 
						End Site
						{
							OFFSET 0.0 0.0 0.0
						}
					}
				}
			}
		}
	}
}
MOTION
Frames:	4
Frame Time:	0.0333333
0.000000 0.000000 0.000000 0.000000 0.000000 -0.000000 -3.390480 91.695500 -0.738179 84.095900 0.490599 6.913570 15.735700 0.000005 -0.000001 70.850600 86.288500 -68.690000 8.984550 -0.406207 -0.000000 -0.701010 -2.594050 4.303770 16.377300 -0.000001 -0.000001 11.127600 2.782850 5.636860 6.456720 -0.000001 -0.000000 -7.860360 1.601670 17.164600 12.994200 -0.242716 4.980390 -93.004700 8.332110 -70.088400 5.348090 -0.000007 -0.000001 -72.322100 27.755400 0.791600 24.328600 0.000019 0.000005 10.989000 26.959500 -23.186000 22.291600 -0.000001 0.000005 -2.420660 4.986270 7.610100 12.994500 -0.242716 -4.980390 86.593600 8.007730 -66.863900 -5.348130 -0.000001 -0.000004 -68.512100 -4.568230 -11.490700 -24.328900 0.000322 -0.000009 8.644130 -10.628300 -140.501000 -22.291500 -0.000108 -0.000004 43.906900 5.665870 -16.785100 -2.192480 -6.469440 -0.000000 -172.929000 6.669950 -1.710320 39.081100 -0.000007 -0.000012 0.408416 -0.721299 29.520500 40.985400 -0.000006 -0.000013 -0.676672 2.481150 -76.871800 11.754300 -0.000000 0.000003 -0.000067 0.168747 -9.732470 -2.192510 6.469440 -0.000001 -170.523000 9.265260 -174.356000 -39.081100 -0.002282 -0.040193 0.148348 -0.478178 16.871700 -40.985400 0.000008 0.000006 5.859190 2.800530 -72.122300 -11.754300 -0.000006 -0.000006 -0.011254 0.280447 -5.176910
0.000000 0.000000 0.000000 0.000000 0.000000 -0.000000 -3.391410 91.697000 -0.733743 84.120700 0.492817 6.861060 15.735700 0.000005 -0.000001 70.961500 86.292400 -68.816600 8.984550 -0.406207 -0.000000 -0.704399 -2.576840 4.272490 16.377300 -0.000001 -0.000001 11.211900 2.749870 5.539350 6.456720 -0.000001 -0.000000 -7.729790 1.584950 16.933500 12.994200 -0.242716 4.980390 -93.027100 8.360890 -70.014700 5.348090 -0.000007 -0.000001 -72.338300 27.708400 0.680367 24.328600 0.000019 0.000005 10.953600 26.922700 -23.143800 22.291600 -0.000001 0.000005 -2.392460 4.994180 7.442910 12.994500 -0.242716 -4.980390 86.592400 8.012160 -66.867900 -5.348130 -0.000001 -0.000004 -68.481900 -4.450420 -11.554400 -24.328900 0.000322 -0.000009 8.722610 -10.667300 -140.345000 -22.291500 -0.000108 -0.000004 43.677500 5.664940 -16.663300 -2.192480 -6.469440 -0.000000 -172.942000 6.665320 -1.750770 39.081100 -0.000007 -0.000012 0.403972 -0.714417 29.487300 40.985400 -0.000006 -0.000013 -0.677257 2.483720 -76.798200 11.754300 -0.000000 0.000003 0.000104 0.165859 -9.849740 -2.192510 6.469440 -0.000001 -170.540000 9.303220 -174.414000 -39.081100 -0.002282 -0.040193 0.149185 -0.480860 16.874200 -40.985400 0.000008 0.000006 5.890480 2.807230 -72.124500 -11.754300 -0.000006 -0.000006 -0.011369 0.281264 -5.143440
0.000000 0.000000 0.000000 0.000000 0.000000 -0.000000 -3.397790 91.703900 -0.717107 84.127500 0.518504 6.886870 15.735700 0.000005 -0.000001 71.164300 86.272000 -69.021000 8.984550 -0.406207 -0.000000 -0.657505 -2.564200 4.270390 16.377300 -0.000001 -0.000001 11.289100 2.758370 5.378480 6.456720 -0.000001 -0.000000 -7.697700 1.570690 16.722700 12.994200 -0.242716 4.980390 -93.045000 8.399430 -69.989800 5.348090 -0.000007 -0.000001 -72.362100 27.731500 0.602030 24.328600 0.000019 0.000005 10.988100 26.948800 -23.192000 22.291600 -0.000001 0.000005 -2.233580 4.988520 7.562690 12.994500 -0.242716 -4.980390 86.590300 8.009850 -66.849600 -5.348130 -0.000001 -0.000004 -68.363000 -4.320370 -11.543200 -24.328900 0.000322 -0.000009 8.695400 -10.590800 -140.234000 -22.291500 -0.000108 -0.000004 43.651200 5.664710 -16.633400 -2.192480 -6.469440 -0.000000 -172.938000 6.629950 -1.687670 39.081100 -0.000007 -0.000012 0.402205 -0.712779 29.436000 40.985400 -0.000006 -0.000013 -0.668656 2.531180 -76.817300 11.754300 -0.000000 0.000003 0.000109 0.165776 -9.853140 -2.192510 6.469440 -0.000001 -170.551000 9.212840 -174.366000 -39.081100 -0.002282 -0.040193 0.143955 -0.463974 16.862000 -40.985400 0.000008 0.000006 5.668690 2.741940 -72.058200 -11.754300 -0.000006 -0.000006 -0.010869 0.277688 -5.289860
0.000000 0.000000 0.000000 0.000000 0.000000 -0.000000 -3.409450 91.705000 -0.720737 84.140200 0.561402 6.853740 15.735700 0.000005 -0.000001 71.155100 86.251900 -69.012000 8.984550 -0.406207 -0.000000 -0.619647 -2.577570 4.270760 16.377300 -0.000001 -0.000001 11.236900 2.757170 5.216080 6.456720 -0.000001 -0.000000 -7.612100 1.626130 16.495400 12.994200 -0.242716 4.980390 -93.076500 8.453050 -69.916100 5.348090 -0.000007 -0.000001 -72.322400 27.824400 0.470365 24.328600 0.000019 0.000005 10.921100 26.774700 -23.186400 22.291600 -0.000001 0.000005 -2.293600 4.988010 7.573390 12.994500 -0.242716 -4.980390 86.602000 7.996050 -66.885400 -5.348130 -0.000001 -0.000004 -68.309300 -4.324420 -11.488000 -24.328900 0.000322 -0.000009 8.634620 -10.480900 -140.144000 -22.291500 -0.000108 -0.000004 43.450000 5.664270 -16.574300 -2.192480 -6.469440 -0.000000 -172.935000 6.620570 -1.734450 39.081100 -0.000007 -0.000012 0.404057 -0.716369 29.425500 40.985400 -0.000006 -0.000013 -0.655860 2.595090 -76.771300 11.754300 -0.000000 0.000003 0.000164 0.164814 -9.892190 -2.192510 6.469440 -0.000001 -170.580000 9.366510 -174.417000 -39.081100 -0.002282 -0.040193 0.144438 -0.465554 16.862400 -40.985400 0.000008 0.000006 5.719970 2.835210 -72.044500 -11.754300 -0.000006 -0.000006 -0.010870 0.277696 -5.289500
